<svg xmlns="http://www.w3.org/2000/svg" viewBox="0 0 1440 320">
  <path fill="#17b169" fill-opacity="0.75" d="M0,96L26.7,112C53.3,128,107,160,160,160C213.3,160,267,128,320,122.7C373.3,117,427,139,480,170.7C533.3,203,587,245,640,245.3C693.3,245,747,203,800,165.3C853.3,128,907,96,960,101.3C1013.3,107,1067,149,1120,176C1173.3,203,1227,213,1280,197.3C1333.3,181,1387,139,1413,117.3L1440,96L1440,320L1413.3,320C1386.7,320,1333,320,1280,320C1226.7,320,1173,320,1120,320C1066.7,320,1013,320,960,320C906.7,320,853,320,800,320C746.7,320,693,320,640,320C586.7,320,533,320,480,320C426.7,320,373,320,320,320C266.7,320,213,320,160,320C106.7,320,53,320,27,320L0,320Z">
      <animate attributeName="d"
        values="M0,96L26.7,112C53.3,128,107,160,160,160C213.3,160,267,128,320,122.7C373.3,117,427,139,480,170.7C533.3,203,587,245,640,245.3C693.3,245,747,203,800,165.3C853.3,128,907,96,960,101.3C1013.3,107,1067,149,1120,176C1173.3,203,1227,213,1280,197.3C1333.3,181,1387,139,1413,117.3L1440,96L1440,320L1413.3,320C1386.7,320,1333,320,1280,320C1226.7,320,1173,320,1120,320C1066.7,320,1013,320,960,320C906.7,320,853,320,800,320C746.7,320,693,320,640,320C586.7,320,533,320,480,320C426.7,320,373,320,320,320C266.7,320,213,320,160,320C106.7,320,53,320,27,320L0,320Z;
                M0,128L26.7,138.7C53.3,149,107,171,160,165.3C213.3,160,267,128,320,106.7C373.3,85,427,75,480,90.7C533.3,107,587,149,640,160C693.3,171,747,149,800,133.3C853.3,117,907,107,960,112C1013.3,117,1067,139,1120,165.3C1173.3,192,1227,224,1280,218.7C1333.3,213,1387,171,1413,149.3L1440,128L1440,320L1413.3,320C1386.7,320,1333,320,1280,320C1226.7,320,1173,320,1120,320C1066.7,320,1013,320,960,320C906.7,320,853,320,800,320C746.7,320,693,320,640,320C586.7,320,533,320,480,320C426.7,320,373,320,320,320C266.7,320,213,320,160,320C106.7,320,53,320,27,320L0,320Z;
                M0,96L26.7,112C53.3,128,107,160,160,160C213.3,160,267,128,320,122.7C373.3,117,427,139,480,170.7C533.3,203,587,245,640,245.3C693.3,245,747,203,800,165.3C853.3,128,907,96,960,101.3C1013.3,107,1067,149,1120,176C1173.3,203,1227,213,1280,197.3C1333.3,181,1387,139,1413,117.3L1440,96L1440,320L1413.3,320C1386.7,320,1333,320,1280,320C1226.7,320,1173,320,1120,320C1066.7,320,1013,320,960,320C906.7,320,853,320,800,320C746.7,320,693,320,640,320C586.7,320,533,320,480,320C426.7,320,373,320,320,320C266.7,320,213,320,160,320C106.7,320,53,320,27,320L0,320Z"
        dur="6s"
        repeatCount="indefinite"
        keyTimes="0;0.5;1"
        calcMode="spline"
        keySplines="0.4 0 0.6 1;0.4 0 0.6 1" />
    </path>
</svg>