<svg xmlns="http://www.w3.org/2000/svg" viewBox="0 0 1400 320">
  <path
    fill="#E1EEBC"
    fill-opacity="1"
    d="M0,96L18.5,122.7C36.9,149,74,203,111,213.3C147.7,224,185,192,222,192C258.5,192,295,224,332,224C369.2,224,406,192,443,197.3C480,203,517,245,554,250.7C590.8,256,628,224,665,218.7C701.5,213,738,235,775,256C812.3,277,849,299,886,272C923.1,245,960,171,997,138.7C1033.8,107,1071,117,1108,122.7C1144.6,128,1182,128,1218,112C1255.4,96,1292,64,1329,58.7C1366.2,53,1403,75,1422,85.3L1440,96L1440,320L1421.5,320C1403.1,320,1366,320,1329,320C1292.3,320,1255,320,1218,320C1181.5,320,1145,320,1108,320C1070.8,320,1034,320,997,320C960,320,923,320,886,320C849.2,320,812,320,775,320C738.5,320,702,320,665,320C627.7,320,591,320,554,320C516.9,320,480,320,443,320C406.2,320,369,320,332,320C295.4,320,258,320,222,320C184.6,320,148,320,111,320C73.8,320,37,320,18,320L0,320Z"
  >
    <animate
      attributeName="d"
      dur="15s"
      repeatCount="indefinite"
      values="
        M0,96L18.5,122.7C36.9,149,74,203,111,213.3C147.7,224,185,192,222,192C258.5,192,295,224,332,224C369.2,224,406,192,443,197.3C480,203,517,245,554,250.7C590.8,256,628,224,665,218.7C701.5,213,738,235,775,256C812.3,277,849,299,886,272C923.1,245,960,171,997,138.7C1033.8,107,1071,117,1108,122.7C1144.6,128,1182,128,1218,112C1255.4,96,1292,64,1329,58.7C1366.2,53,1403,75,1422,85.3L1440,96L1440,320L1421.5,320C1403.1,320,1366,320,1329,320C1292.3,320,1255,320,1218,320C1181.5,320,1145,320,1108,320C1070.8,320,1034,320,997,320C960,320,923,320,886,320C849.2,320,812,320,775,320C738.5,320,702,320,665,320C627.7,320,591,320,554,320C516.9,320,480,320,443,320C406.2,320,369,320,332,320C295.4,320,258,320,222,320C184.6,320,148,320,111,320C73.8,320,37,320,18,320L0,320Z;
        M0,128L18.5,149.3C36.9,171,74,213,111,208C147.7,203,185,149,222,133.3C258.5,117,295,139,332,165.3C369.2,192,406,224,443,218.7C480,213,517,171,554,160C590.8,149,628,171,665,192C701.5,213,738,235,775,224C812.3,213,849,171,886,160C923.1,149,960,171,997,181.3C1033.8,192,1071,192,1108,186.7C1144.6,181,1182,171,1218,149.3C1255.4,128,1292,96,1329,85.3C1366.2,75,1403,85,1422,90.7L1440,96L1440,320L1421.5,320C1403.1,320,1366,320,1329,320C1292.3,320,1255,320,1218,320C1181.5,320,1145,320,1108,320C1070.8,320,1034,320,997,320C960,320,923,320,886,320C849.2,320,812,320,775,320C738.5,320,702,320,665,320C627.7,320,591,320,554,320C516.9,320,480,320,443,320C406.2,320,369,320,332,320C295.4,320,258,320,222,320C184.6,320,148,320,111,320C73.8,320,37,320,18,320L0,320Z;
        M0,96L18.5,122.7C36.9,149,74,203,111,213.3C147.7,224,185,192,222,192C258.5,192,295,224,332,224C369.2,224,406,192,443,197.3C480,203,517,245,554,250.7C590.8,256,628,224,665,218.7C701.5,213,738,235,775,256C812.3,277,849,299,886,272C923.1,245,960,171,997,138.7C1033.8,107,1071,117,1108,122.7C1144.6,128,1182,128,1218,112C1255.4,96,1292,64,1329,58.7C1366.2,53,1403,75,1422,85.3L1440,96L1440,320L1421.5,320C1403.1,320,1366,320,1329,320C1292.3,320,1255,320,1218,320C1181.5,320,1145,320,1108,320C1070.8,320,1034,320,997,320C960,320,923,320,886,320C849.2,320,812,320,775,320C738.5,320,702,320,665,320C627.7,320,591,320,554,320C516.9,320,480,320,443,320C406.2,320,369,320,332,320C295.4,320,258,320,222,320C184.6,320,148,320,111,320C73.8,320,37,320,18,320L0,320Z
      "
    />
  </path>
</svg>